<svg width="18" height="20" viewBox="0 0 18 20" fill="none" xmlns="http://www.w3.org/2000/svg">
<path id="calander" d="M4.5 0.5H5.5C5.76522 0.5 6.01957 0.605357 6.20711 0.792893C6.39464 0.98043 6.5 1.23478 6.5 1.5V2.5H11.5V1.5C11.5 1.23478 11.6054 0.98043 11.7929 0.792893C11.9804 0.605357 12.2348 0.5 12.5 0.5H13.5C13.7652 0.5 14.0196 0.605357 14.2071 0.792893C14.3946 0.98043 14.5 1.23478 14.5 1.5V2.5C15.2956 2.5 16.0587 2.81607 16.6213 3.37868C17.1839 3.94129 17.5 4.70435 17.5 5.5V16.5C17.5 17.2956 17.1839 18.0587 16.6213 18.6213C16.0587 19.1839 15.2956 19.5 14.5 19.5H3.5C2.70435 19.5 1.94129 19.1839 1.37868 18.6213C0.816071 18.0587 0.5 17.2956 0.5 16.5V5.5C0.5 4.70435 0.816071 3.94129 1.37868 3.37868C1.94129 2.81607 2.70435 2.5 3.5 2.5V1.5C3.5 1.23478 3.60536 0.98043 3.79289 0.792893C3.98043 0.605357 4.23478 0.5 4.5 0.5ZM12.5 2.5H13.5V1.5H12.5V2.5ZM5.5 2.5V1.5H4.5V2.5H5.5ZM3.5 3.5C2.96957 3.5 2.46086 3.71071 2.08579 4.08579C1.71071 4.46086 1.5 4.96957 1.5 5.5V6.5H16.5V5.5C16.5 4.96957 16.2893 4.46086 15.9142 4.08579C15.5391 3.71071 15.0304 3.5 14.5 3.5H3.5ZM1.5 16.5C1.5 17.0304 1.71071 17.5391 2.08579 17.9142C2.46086 18.2893 2.96957 18.5 3.5 18.5H14.5C15.0304 18.5 15.5391 18.2893 15.9142 17.9142C16.2893 17.5391 16.5 17.0304 16.5 16.5V7.5H1.5V16.5ZM9.5 11.5H14.5V16.5H9.5V11.5ZM10.5 12.5V15.5H13.5V12.5H10.5Z" fill="#454545"/>
</svg>
