<svg width="14" height="16" viewBox="0 0 14 16" fill="none" xmlns="http://www.w3.org/2000/svg">
<path id="home" d="M1 14.6925H4.692V9.6155C4.692 9.38683 4.76967 9.19516 4.925 9.04049C5.07967 8.88516 5.27133 8.8075 5.5 8.8075H8.5C8.72867 8.8075 8.92067 8.88516 9.076 9.04049C9.23067 9.19516 9.308 9.38683 9.308 9.6155V14.6925H13V6.00049C13 5.89783 12.9777 5.8045 12.933 5.7205C12.8883 5.6365 12.8273 5.56316 12.75 5.50049L7.366 1.4425C7.26333 1.35316 7.14133 1.3085 7 1.3085C6.85867 1.3085 6.737 1.35316 6.635 1.4425L1.25 5.50049C1.17333 5.5645 1.11233 5.63783 1.067 5.7205C1.02167 5.80316 0.999333 5.89649 1 6.00049V14.6925ZM0 14.6925V6.00049C0 5.74449 0.0573333 5.50216 0.172 5.2735C0.286667 5.04483 0.444667 4.85649 0.646 4.7085L6.031 0.630496C6.313 0.415162 6.635 0.307495 6.997 0.307495C7.359 0.307495 7.683 0.415162 7.969 0.630496L13.354 4.7075C13.556 4.8555 13.714 5.04416 13.828 5.2735C13.9427 5.50216 14 5.74449 14 6.00049V14.6925C14 14.9605 13.9003 15.1942 13.701 15.3935C13.5017 15.5928 13.268 15.6925 13 15.6925H9.116C8.88667 15.6925 8.69467 15.6152 8.54 15.4605C8.38533 15.3052 8.308 15.1132 8.308 14.8845V9.8085H5.692V14.8845C5.692 15.1138 5.61467 15.3058 5.46 15.4605C5.30533 15.6152 5.11367 15.6925 4.885 15.6925H1C0.732 15.6925 0.498333 15.5928 0.299 15.3935C0.0996664 15.1942 0 14.9605 0 14.6925Z" fill="black"/>
</svg>
