<svg width="20" height="20" viewBox="0 0 20 20" fill="none" xmlns="http://www.w3.org/2000/svg">
<path id="info" d="M10.833 19.423V10.962H19.294V19.423H10.833ZM9.42099 7.07703C8.72366 7.07703 8.13266 7.31936 7.64799 7.80403C7.16333 8.28869 6.92099 8.87969 6.92099 9.57703C6.92099 10.1077 7.05966 10.577 7.33699 10.985C7.61366 11.3924 7.98399 11.6937 8.44799 11.889V10.754C8.28933 10.6207 8.16166 10.4434 8.06499 10.222C7.96833 10.0007 7.92033 9.78569 7.92099 9.57703C7.92099 9.16036 8.06699 8.80636 8.35899 8.51503C8.65099 8.22369 9.00499 8.07769 9.42099 8.07703C9.65433 8.07703 9.86599 8.12303 10.056 8.21503C10.2453 8.30636 10.4067 8.42703 10.54 8.57703H11.694C11.5033 8.12569 11.2063 7.76303 10.803 7.48903C10.3997 7.21503 9.93899 7.07769 9.42099 7.07703ZM7.58199 18.577L7.22099 15.685C6.90166 15.5884 6.55666 15.437 6.18599 15.231C5.81466 15.0244 5.49899 14.803 5.23899 14.567L2.57099 15.702L0.705994 12.452L3.01199 10.713C2.98199 10.533 2.95766 10.347 2.93899 10.155C2.91899 9.96303 2.90899 9.77669 2.90899 9.59603C2.90899 9.42803 2.91899 9.25136 2.93899 9.06603C2.95766 8.88069 2.98199 8.67203 3.01199 8.44003L0.705994 6.70303L2.57099 3.49103L5.21899 4.60703C5.51766 4.35836 5.84099 4.13403 6.18899 3.93403C6.53566 3.73403 6.87333 3.57936 7.20199 3.47003L7.58199 0.577026H11.314L11.675 3.48903C12.0583 3.62369 12.397 3.77803 12.691 3.95203C12.985 4.12603 13.288 4.34403 13.6 4.60603L16.325 3.49103L18.19 6.70203L15.912 8.42303C15.9247 8.44836 15.931 8.47403 15.931 8.50003C15.931 8.52603 15.9373 8.55169 15.95 8.57703H14.771C14.7543 8.49369 14.741 8.41569 14.731 8.34303C14.7203 8.27103 14.6983 8.19336 14.665 8.11003L16.892 6.42703L15.898 4.72703L13.346 5.79703C13.0433 5.46436 12.6457 5.15269 12.153 4.86203C11.6597 4.57203 11.193 4.37969 10.753 4.28503L10.448 1.57703H8.45399L8.14199 4.26603C7.63799 4.37336 7.17466 4.54669 6.75199 4.78603C6.32999 5.02469 5.90999 5.35303 5.49199 5.77103L2.99799 4.72703L2.00399 6.42703L4.17299 8.04703C4.08966 8.27103 4.03133 8.51436 3.99799 8.77703C3.96466 9.03969 3.94799 9.31303 3.94799 9.59703C3.94799 9.85036 3.96466 10.102 3.99799 10.352C4.03133 10.602 4.08333 10.8454 4.15399 11.082L2.00399 12.727L2.99799 14.427L5.47299 13.377C5.87299 13.781 6.32633 14.115 6.83299 14.379C7.33966 14.643 7.87799 14.836 8.44799 14.958V18.577H7.58199ZM12.217 18.039H17.91V17.349C17.5567 16.927 17.1317 16.603 16.635 16.377C16.1377 16.1517 15.614 16.039 15.064 16.039C14.514 16.039 13.99 16.1517 13.492 16.377C12.994 16.6024 12.569 16.926 12.217 17.348V18.039ZM15.063 15.193C15.4163 15.193 15.7163 15.0697 15.963 14.823C16.2097 14.5757 16.333 14.2757 16.333 13.923C16.333 13.5704 16.2097 13.2707 15.963 13.024C15.7163 12.7774 15.4163 12.654 15.063 12.654C14.711 12.654 14.4113 12.7774 14.164 13.024C13.9173 13.2707 13.794 13.5707 13.794 13.924C13.794 14.276 13.9173 14.5754 14.164 14.822C14.4107 15.0687 14.7107 15.192 15.064 15.192" fill="black"/>
</svg>
