<svg width="20" height="16" viewBox="0 0 20 16" fill="none" xmlns="http://www.w3.org/2000/svg">
<path id="mail" d="M3.5 0.5H16.5C17.2956 0.5 18.0587 0.816071 18.6213 1.37868C19.1839 1.94129 19.5 2.70435 19.5 3.5V12.5C19.5 13.2956 19.1839 14.0587 18.6213 14.6213C18.0587 15.1839 17.2956 15.5 16.5 15.5H3.5C2.70435 15.5 1.94129 15.1839 1.37868 14.6213C0.816071 14.0587 0.5 13.2956 0.5 12.5V3.5C0.5 2.70435 0.816071 1.94129 1.37868 1.37868C1.94129 0.816071 2.70435 0.5 3.5 0.5ZM3.5 1.5C3 1.5 2.56 1.67 2.22 1.97L10 7L17.78 1.97C17.44 1.67 17 1.5 16.5 1.5H3.5ZM10 8.21L1.63 2.78C1.55 3 1.5 3.25 1.5 3.5V12.5C1.5 13.0304 1.71071 13.5391 2.08579 13.9142C2.46086 14.2893 2.96957 14.5 3.5 14.5H16.5C17.0304 14.5 17.5391 14.2893 17.9142 13.9142C18.2893 13.5391 18.5 13.0304 18.5 12.5V3.5C18.5 3.25 18.45 3 18.37 2.78L10 8.21Z" fill="black"/>
</svg>
