<svg width="16" height="16" viewBox="0 0 16 16" fill="none" xmlns="http://www.w3.org/2000/svg">
<path id="note" d="M14.5217 0.5H1.47826C1.21881 0.5 0.969985 0.603066 0.786526 0.786526C0.603066 0.969985 0.5 1.21881 0.5 1.47826V14.5217C0.5 14.7812 0.603066 15.03 0.786526 15.2135C0.969985 15.3969 1.21881 15.5 1.47826 15.5H10.3389C10.4673 15.5003 10.5945 15.4752 10.7131 15.4261C10.8318 15.377 10.9395 15.3048 11.0302 15.2139L15.2139 11.0302C15.3048 10.9395 15.377 10.8318 15.4261 10.7131C15.4752 10.5945 15.5003 10.4673 15.5 10.3389V1.47826C15.5 1.21881 15.3969 0.969985 15.2135 0.786526C15.03 0.603066 14.7812 0.5 14.5217 0.5ZM1.15217 14.5217V1.47826C1.15217 1.39178 1.18653 1.30884 1.24768 1.24768C1.30884 1.18653 1.39178 1.15217 1.47826 1.15217H14.5217C14.6082 1.15217 14.6912 1.18653 14.7523 1.24768C14.8135 1.30884 14.8478 1.39178 14.8478 1.47826V10.2826H10.6087C10.5222 10.2826 10.4393 10.317 10.3781 10.3781C10.317 10.4393 10.2826 10.5222 10.2826 10.6087V14.8478H1.47826C1.39178 14.8478 1.30884 14.8135 1.24768 14.7523C1.18653 14.6912 1.15217 14.6082 1.15217 14.5217ZM10.9348 14.3864V10.9348H14.3872L10.9348 14.3864Z" fill="black"/>
</svg>
