<svg width="22" height="20" viewBox="0 0 22 20" fill="none" xmlns="http://www.w3.org/2000/svg">
<path id="orgchart" d="M8.5 0.5H13.5V5.5H11.5V9.5H16.5C17.2956 9.5 18.0587 9.81607 18.6213 10.3787C19.1839 10.9413 19.5 11.7044 19.5 12.5V14.5H21.5V19.5H16.5V14.5H18.5V12.5C18.5 11.9696 18.2893 11.4609 17.9142 11.0858C17.5391 10.7107 17.0304 10.5 16.5 10.5H11.5V14.5H13.5V19.5H8.5V14.5H10.5V10.5H5.5C4.96957 10.5 4.46086 10.7107 4.08579 11.0858C3.71071 11.4609 3.5 11.9696 3.5 12.5V14.5H5.5V19.5H0.5V14.5H2.5V12.5C2.5 11.7044 2.81607 10.9413 3.37868 10.3787C3.94129 9.81607 4.70435 9.5 5.5 9.5H10.5V5.5H8.5V0.5ZM12.5 4.5V1.5H9.5V4.5H12.5ZM4.5 18.5V15.5H1.5V18.5H4.5ZM12.5 18.5V15.5H9.5V18.5H12.5ZM20.5 18.5V15.5H17.5V18.5H20.5Z" fill="#454545"/>
</svg>
