<svg width="20" height="14" viewBox="0 0 20 14" fill="none" xmlns="http://www.w3.org/2000/svg">
<path id="storage" d="M4.5 14C3.25267 14 2.191 13.5647 1.315 12.694C0.438333 11.8247 0 10.7657 0 9.517C0 8.371 0.391667 7.354 1.175 6.466C1.95833 5.578 2.932 5.101 4.096 5.035C4.32067 3.57833 4.99067 2.375 6.106 1.425C7.22133 0.475 8.51933 0 10 0C11.668 0 13.085 0.583 14.251 1.749C15.417 2.915 16 4.332 16 6V7H16.616C17.5733 7.03067 18.3767 7.38233 19.026 8.055C19.6753 8.72767 20 9.54267 20 10.5C20 11.4807 19.662 12.3093 18.986 12.986C18.3087 13.662 17.48 14 16.5 14H4.5ZM4.5 13H16.5C17.2 13 17.7917 12.7583 18.275 12.275C18.7583 11.7917 19 11.2 19 10.5C19 9.8 18.7583 9.20833 18.275 8.725C17.7917 8.24167 17.2 8 16.5 8H15V6C15 4.61667 14.5123 3.43733 13.537 2.462C12.5617 1.48667 11.3827 0.999333 10 1C8.61733 1.00067 7.43833 1.48833 6.463 2.463C5.48767 3.43767 5 4.61667 5 6H4.5C3.53333 6 2.70833 6.34167 2.025 7.025C1.34167 7.70833 1 8.53333 1 9.5C1 10.4667 1.34167 11.2917 2.025 11.975C2.70833 12.6583 3.53333 13 4.5 13Z" fill="black"/>
</svg>
